<?xml version="1.0" standalone="no"?>
<!DOCTYPE svg PUBLIC "-//W3C//DTD SVG 20010904//EN"
 "http://www.w3.org/TR/2001/REC-SVG-20010904/DTD/svg10.dtd">
<svg version="1.0" xmlns="http://www.w3.org/2000/svg"
 width="32.000000pt" height="32.000000pt" viewBox="0 0 32.000000 32.000000"
 preserveAspectRatio="xMidYMid meet">

<g transform="translate(0.000000,32.000000) scale(0.100000,-0.100000)"
fill="#000000" stroke="none">
<path d="M90 298 c-48 -25 -90 -89 -90 -138 0 -49 42 -113 90 -138 139 -72
280 69 208 208 -25 48 -89 90 -138 90 -14 0 -46 -10 -70 -22z m115 -98 c37
-38 38 -41 22 -57 -16 -16 -18 -16 -38 4 l-22 21 -29 -21 c-27 -20 -29 -20
-45 -4 -16 16 -15 19 22 57 21 22 42 40 45 40 3 0 24 -18 45 -40z"/>
</g>
</svg>
